<svg width="22" height="23" viewBox="0 0 22 23" fill="none" xmlns="http://www.w3.org/2000/svg">
<path d="M1.66667 20.3333H8.66667C8.66667 20.9522 8.9125 21.5457 9.35008 21.9833C9.78767 22.4208 10.3812 22.6667 11 22.6667C11.6188 22.6667 12.2123 22.4208 12.6499 21.9833C13.0875 21.5457 13.3333 20.9522 13.3333 20.3333H20.3333C20.6428 20.3333 20.9395 20.2104 21.1583 19.9916C21.3771 19.7728 21.5 19.4761 21.5 19.1667C21.5 18.8572 21.3771 18.5605 21.1583 18.3417C20.9395 18.1229 20.6428 18 20.3333 18V9.83333C20.3333 7.35798 19.35 4.98401 17.5997 3.23367C15.8493 1.48333 13.4754 0.5 11 0.5C8.52465 0.5 6.15068 1.48333 4.40034 3.23367C2.65 4.98401 1.66667 7.35798 1.66667 9.83333V18C1.35725 18 1.0605 18.1229 0.841709 18.3417C0.622916 18.5605 0.5 18.8572 0.5 19.1667C0.5 19.4761 0.622916 19.7728 0.841709 19.9916C1.0605 20.2104 1.35725 20.3333 1.66667 20.3333V20.3333ZM4 9.83333C4 7.97682 4.7375 6.19634 6.05025 4.88359C7.36301 3.57083 9.14348 2.83333 11 2.83333C12.8565 2.83333 14.637 3.57083 15.9497 4.88359C17.2625 6.19634 18 7.97682 18 9.83333V18H4V9.83333Z" fill="#2D9CDB"/>
</svg>
