<svg width="16" height="17" viewBox="0 0 16 17" fill="none" xmlns="http://www.w3.org/2000/svg">
<path d="M3 16.2447H13C13.663 16.2447 14.2989 15.9813 14.7678 15.5125C15.2366 15.0437 15.5 14.4078 15.5 13.7447V3.74473C15.5 3.08169 15.2366 2.4458 14.7678 1.97696C14.2989 1.50812 13.663 1.24473 13 1.24473H12.1667C12.1667 1.02372 12.0789 0.811754 11.9226 0.655474C11.7663 0.499193 11.5543 0.411396 11.3333 0.411396C11.1123 0.411396 10.9004 0.499193 10.7441 0.655474C10.5878 0.811754 10.5 1.02372 10.5 1.24473H5.5C5.5 1.02372 5.4122 0.811754 5.25592 0.655474C5.09964 0.499193 4.88768 0.411396 4.66667 0.411396C4.44565 0.411396 4.23369 0.499193 4.07741 0.655474C3.92113 0.811754 3.83333 1.02372 3.83333 1.24473H3C2.33696 1.24473 1.70107 1.50812 1.23223 1.97696C0.763392 2.4458 0.5 3.08169 0.5 3.74473V13.7447C0.5 14.4078 0.763392 15.0437 1.23223 15.5125C1.70107 15.9813 2.33696 16.2447 3 16.2447ZM2.16667 3.74473C2.16667 3.52372 2.25446 3.31175 2.41074 3.15547C2.56702 2.99919 2.77899 2.9114 3 2.9114H3.83333V3.74473C3.83333 3.96574 3.92113 4.1777 4.07741 4.33399C4.23369 4.49027 4.44565 4.57806 4.66667 4.57806C4.88768 4.57806 5.09964 4.49027 5.25592 4.33399C5.4122 4.1777 5.5 3.96574 5.5 3.74473V2.9114H10.5V3.74473C10.5 3.96574 10.5878 4.1777 10.7441 4.33399C10.9004 4.49027 11.1123 4.57806 11.3333 4.57806C11.5543 4.57806 11.7663 4.49027 11.9226 4.33399C12.0789 4.1777 12.1667 3.96574 12.1667 3.74473V2.9114H13C13.221 2.9114 13.433 2.99919 13.5893 3.15547C13.7455 3.31175 13.8333 3.52372 13.8333 3.74473V6.24473H2.16667V3.74473ZM2.16667 7.9114H13.8333V13.7447C13.8333 13.9657 13.7455 14.1777 13.5893 14.334C13.433 14.4903 13.221 14.5781 13 14.5781H3C2.77899 14.5781 2.56702 14.4903 2.41074 14.334C2.25446 14.1777 2.16667 13.9657 2.16667 13.7447V7.9114Z" fill="#464255"/>
</svg>
