<svg width="16" height="18" viewBox="0 0 16 18" fill="none" xmlns="http://www.w3.org/2000/svg">
<path d="M0.5 6.41115V16.4112C0.5 16.6322 0.587797 16.8441 0.744078 17.0004C0.900358 17.1567 1.11232 17.2445 1.33333 17.2445H5.5C5.72101 17.2445 5.93297 17.1567 6.08925 17.0004C6.24554 16.8441 6.33333 16.6322 6.33333 16.4112V10.5778H9.66667V16.4112C9.66667 16.6322 9.75446 16.8441 9.91074 17.0004C10.067 17.1567 10.279 17.2445 10.5 17.2445H14.6667C14.8877 17.2445 15.0996 17.1567 15.2559 17.0004C15.4122 16.8441 15.5 16.6322 15.5 16.4112V6.41115C15.5 6.28178 15.4699 6.15419 15.412 6.03848C15.3542 5.92276 15.2702 5.82211 15.1667 5.74449L8.5 0.744487C8.35575 0.636301 8.18031 0.57782 8 0.57782C7.81969 0.57782 7.64425 0.636301 7.5 0.744487L0.833333 5.74449C0.729837 5.82211 0.645834 5.92276 0.587977 6.03848C0.530121 6.15419 0.5 6.28178 0.5 6.41115V6.41115ZM2.16667 6.82782L8 2.45282L13.8333 6.82782V15.5778H11.3333V9.74449C11.3333 9.52347 11.2455 9.31151 11.0893 9.15523C10.933 8.99895 10.721 8.91115 10.5 8.91115H5.5C5.27899 8.91115 5.06702 8.99895 4.91074 9.15523C4.75446 9.31151 4.66667 9.52347 4.66667 9.74449V15.5778H2.16667V6.82782Z" fill="#464255"/>
</svg>
