<svg width="18" height="14" viewBox="0 0 18 14" fill="none" xmlns="http://www.w3.org/2000/svg">
<path d="M15.875 3.61969H15.0032L15.1094 2.55588C15.1354 2.29525 15.1066 2.03206 15.0246 1.78327C14.9427 1.53448 14.8096 1.30562 14.6338 1.11143C14.458 0.917239 14.2435 0.76203 14.0041 0.655805C13.7647 0.549581 13.5057 0.494696 13.2437 0.49469H3.50625C3.24427 0.49471 2.9852 0.549622 2.74574 0.655885C2.50627 0.762149 2.29173 0.917406 2.11594 1.11165C1.94015 1.3059 1.80701 1.53482 1.7251 1.78366C1.64319 2.03251 1.61433 2.29576 1.64037 2.55644L2.4963 12.1166C2.51309 12.2665 2.48018 11.9554 2.59993 12.5554H0.730552C0.564791 12.5554 0.40582 12.6212 0.28861 12.7384C0.1714 12.8556 0.105552 13.0146 0.105552 13.1804C0.105552 13.3461 0.1714 13.5051 0.28861 13.6223C0.40582 13.7395 0.564791 13.8054 0.730552 13.8054L16 13.9947C16.1658 13.9947 16.3247 13.9288 16.4419 13.8116C16.5591 13.6944 16.625 13.5355 16.625 13.3697C16.625 13.2039 16.5591 13.045 16.4419 12.9277C16.3247 12.8105 16.1658 12.7447 16 12.7447H14.1307C14.1827 12.6033 14.2175 12.4561 14.2342 12.3064L14.4405 9.24469H15.875C16.3721 9.24414 16.8487 9.04642 17.2002 8.69491C17.5517 8.3434 17.7494 7.8668 17.75 7.36969V5.49469C17.7494 4.99758 17.5517 4.52098 17.2002 4.16947C16.8487 3.81796 16.3721 3.62024 15.875 3.61969ZM4.66128 12.5554C4.50625 12.5559 4.3566 12.4985 4.24167 12.3944C4.12673 12.2904 4.05478 12.1472 4.03991 11.9929L3.13784 2.58451C3.12913 2.49758 3.13874 2.40979 3.16603 2.32679C3.19332 2.2438 3.23769 2.16744 3.29629 2.10264C3.35489 2.03783 3.42641 1.98602 3.50625 1.95054C3.58608 1.91506 3.67247 1.8967 3.75984 1.89664L13.0204 1.95054C13.1077 1.9506 13.1941 1.96895 13.2739 2.0044C13.3537 2.03986 13.4252 2.09163 13.4838 2.15639C13.5424 2.22116 13.5868 2.29747 13.6141 2.38043C13.6414 2.46338 13.6511 2.55114 13.6424 2.63804L13.0204 11.9935C13.0054 12.1477 12.9334 12.2908 12.8184 12.3948C12.7034 12.4987 12.5538 12.556 12.3988 12.5554H4.66128ZM16.5 7.36969C16.4999 7.53542 16.434 7.69433 16.3168 7.81152C16.1996 7.92871 16.0407 7.99459 15.875 7.99469H14.5656L14.8781 4.86969H15.875C16.0407 4.86979 16.1996 4.93567 16.3168 5.05286C16.434 5.17005 16.4999 5.32896 16.5 5.49469V7.36969Z" fill="#464255"/>
</svg>
