<svg width="16" height="16" viewBox="0 0 16 16" fill="none" xmlns="http://www.w3.org/2000/svg">
<path d="M1.49997 15.0782H4.83331C4.94298 15.0788 5.0517 15.0578 5.15323 15.0163C5.25476 14.9748 5.34711 14.9137 5.42497 14.8365L15.425 4.8365C15.5031 4.75903 15.5651 4.66686 15.6074 4.56531C15.6497 4.46376 15.6715 4.35484 15.6715 4.24483C15.6715 4.13482 15.6497 4.0259 15.6074 3.92435C15.5651 3.8228 15.5031 3.73064 15.425 3.65317L12.0916 0.319832C12.0142 0.241725 11.922 0.17973 11.8205 0.137423C11.7189 0.0951158 11.61 0.0733337 11.5 0.0733337C11.39 0.0733337 11.281 0.0951158 11.1795 0.137423C11.0779 0.17973 10.9858 0.241725 10.9083 0.319832L0.908307 10.3198C0.831072 10.3977 0.769968 10.49 0.728497 10.5916C0.687027 10.6931 0.666006 10.8018 0.66664 10.9115V14.2448C0.66664 14.4658 0.754437 14.6778 0.910718 14.8341C1.067 14.9904 1.27896 15.0782 1.49997 15.0782V15.0782ZM2.33331 11.2532L11.5 2.0865L13.6583 4.24483L4.49164 13.4115H2.33331V11.2532Z" fill="#464255"/>
</svg>
