<svg width="24" height="24" viewBox="0 0 24 24" fill="none" xmlns="http://www.w3.org/2000/svg">
<path fill-rule="evenodd" clip-rule="evenodd" d="M3.09998 5.99998C3.09998 5.50292 3.50292 5.09998 3.99998 5.09998H20C20.497 5.09998 20.9 5.50292 20.9 5.99998C20.9 6.49703 20.497 6.89998 20 6.89998H3.99998C3.50292 6.89998 3.09998 6.49703 3.09998 5.99998Z" fill="#00B074"/>
<path fill-rule="evenodd" clip-rule="evenodd" d="M3.09961 12C3.09961 11.5029 3.41653 11.1 3.80747 11.1H16.3917C16.7827 11.1 17.0996 11.5029 17.0996 12C17.0996 12.4971 16.7827 12.9 16.3917 12.9H3.80747C3.41653 12.9 3.09961 12.4971 3.09961 12Z" fill="#00B074"/>
<path fill-rule="evenodd" clip-rule="evenodd" d="M3.09998 18C3.09998 17.5029 3.50292 17.1 3.99998 17.1H20C20.497 17.1 20.9 17.5029 20.9 18C20.9 18.4971 20.497 18.9 20 18.9H3.99998C3.50292 18.9 3.09998 18.4971 3.09998 18Z" fill="#00B074"/>
</svg>
