<svg width="18" height="16" viewBox="0 0 18 16" fill="none" xmlns="http://www.w3.org/2000/svg">
<path d="M3.16663 15.2447H14.8333C15.4963 15.2447 16.1322 14.9813 16.6011 14.5125C17.0699 14.0436 17.3333 13.4077 17.3333 12.7447V2.74469C17.3333 2.08165 17.0699 1.44576 16.6011 0.976923C16.1322 0.508082 15.4963 0.24469 14.8333 0.24469H3.16663C2.50359 0.24469 1.8677 0.508082 1.39886 0.976923C0.930018 1.44576 0.666626 2.08165 0.666626 2.74469V12.7447C0.666626 13.4077 0.930018 14.0436 1.39886 14.5125C1.8677 14.9813 2.50359 15.2447 3.16663 15.2447ZM15.6666 8.57802H11.5V6.91136H15.6666V8.57802ZM2.33329 2.74469C2.33329 2.52368 2.42109 2.31171 2.57737 2.15543C2.73365 1.99915 2.94561 1.91136 3.16663 1.91136H14.8333C15.0543 1.91136 15.2663 1.99915 15.4226 2.15543C15.5788 2.31171 15.6666 2.52368 15.6666 2.74469V5.24469H10.6666C10.4456 5.24469 10.2337 5.33249 10.0774 5.48877C9.92109 5.64505 9.83329 5.85701 9.83329 6.07802V9.41136C9.83329 9.63237 9.92109 9.84433 10.0774 10.0006C10.2337 10.1569 10.4456 10.2447 10.6666 10.2447H15.6666V12.7447C15.6666 12.9657 15.5788 13.1777 15.4226 13.3339C15.2663 13.4902 15.0543 13.578 14.8333 13.578H3.16663C2.94561 13.578 2.73365 13.4902 2.57737 13.3339C2.42109 13.1777 2.33329 12.9657 2.33329 12.7447V2.74469Z" fill="#464255"/>
</svg>
